<svg xmlns="http://www.w3.org/2000/svg" xmlns:xlink="http://www.w3.org/1999/xlink" width="376" height="340" viewBox="0 0 376 340">
    <defs>
        <path id="bnsztn8fca" d="M0 0H376V340H0z"/>
    </defs>
    <g fill="none" fill-rule="evenodd">
        <mask id="fcmdpwzoob" fill="#fff">
            <use xlink:href="#bnsztn8fca"/>
        </mask>
        <g mask="url(#fcmdpwzoob)">
            <g>
                <path fill="#96524B" d="M316.744 324.404L313.112 289 297 291.615 303.404 328 317 324.875 316.744 324.404" transform="translate(-100)"/>
                <path fill="#181212" d="M300.751 321.135s12.26 3.89 17.228-4.135L348 329.392 298 333l2.751-11.865" transform="translate(-100)"/>
                <path fill="#989898" d="M348 333.278L298.3 337 298 332.726 347.7 329 348 333.278" transform="translate(-100)"/>
                <path fill="#FFFFFE" d="M318.12 322.903c.12-.065.223-.165.298-.294 1.587-2.728 3.273-4.156 3.288-4.17.333-.278.392-.785.132-1.137-.26-.35-.745-.398-1.072-.133-.08.065-1.91 1.604-3.652 4.601-.222.382-.11.879.251 1.112.236.155.526.153.756.021M322.122 324.903c.118-.065.222-.165.297-.294 1.585-2.727 3.272-4.154 3.288-4.168.333-.279.39-.786.13-1.137-.26-.35-.746-.402-1.072-.134-.079.066-1.909 1.605-3.651 4.6-.222.382-.11.879.25 1.112.239.155.527.153.758.021M326.122 327.905c.118-.066.222-.167.297-.294 1.586-2.728 3.27-4.155 3.288-4.17.331-.278.392-.785.129-1.137-.26-.35-.747-.403-1.072-.133-.08.066-1.908 1.605-3.65 4.599-.222.381-.11.88.25 1.113.238.153.527.151.758.022" transform="translate(-100)"/>
                <path fill="#51526E" d="M281.02 146.082l6.5 17.19 27.211 68.84L321 304.14s-29.91 3.09-30.954 2.846c-1.044-.245-7.702-67.305-7.702-67.305L252 176.673 255.33 142l25.69 4.082" transform="translate(-100)"/>
                <path fill="#96524B" d="M207.94 316.617L224 284.841 208.03 281 194 314.928 207.815 318 207.94 316.617" transform="translate(-100)"/>
                <path fill="#181212" d="M194.679 308s8.904 9.115 16.796 4.069L232 337l-45-19.452 7.679-9.548" transform="translate(-100)"/>
                <path fill="#989898" d="M230.4 340L185 320.013 186.598 316 232 335.987 230.4 340" transform="translate(-100)"/>
                <path fill="#FFFFFE" d="M207.861 317c.143 0 .29-.03.421-.09 2.762-1.295 5.042-1.63 5.065-1.634.447-.064.733-.4.633-.749-.096-.35-.548-.576-.987-.518-.104.013-2.576.374-5.61 1.791-.386.183-.5.578-.252.884.164.203.448.316.73.316M209.862 321c.145 0 .29-.03.42-.091 2.763-1.293 5.043-1.628 5.064-1.633.45-.063.733-.398.635-.747-.096-.35-.55-.582-.99-.519-.101.014-2.575.374-5.606 1.792-.388.182-.502.575-.253.883.164.2.446.313.73.315M214.862 325c.143 0 .288-.03.419-.091 2.764-1.291 5.044-1.628 5.065-1.632.449-.064.733-.398.635-.75-.096-.346-.55-.578-.988-.517-.105.015-2.577.375-5.611 1.791-.386.18-.498.576-.25.882.164.202.446.315.73.317" transform="translate(-100)"/>
                <path fill="#51526E" d="M267 173.898l-13.07 64.965L219.438 304 192 294.945l24.782-62.228 6.396-43.903s1.53-34.853 14.196-48.814l27.71 11.128 1.916 22.77" transform="translate(-100)"/>
                <path stroke="#16131D" stroke-width=".856" d="M262 199L272 189" transform="translate(-100)"/>
                <path fill="#96524B" d="M291.982 86L305 117.967 287.803 132 281 90.842 291.982 86" transform="translate(-100)"/>
                <path fill="#FFCA7A" d="M276 65s11.53 3.304 24 25.412L279.09 101 276 65" transform="translate(-100)"/>
                <path fill="#FFCA7A" d="M244.561 58L219 69.663 222.709 131.527 222.601 172 293 166.753 283.727 79.066 276.617 64.797 258.507 58 244.561 58" transform="translate(-100)"/>
                <path fill="#96524B" d="M230 103.107l-14.69 32.741c-2.082 5.105-8.08 7.527-13.257 5.354-4.693-1.967-7.11-7.062-5.61-11.82L207.419 95 230 103.107" transform="translate(-100)"/>
                <path fill="#FFCA7A" d="M227.79 106l8.209-18.197c2.721-7.045-.282-15.071-6.875-18.375-7.053-3.536-14.879-.26-18.113 7.135L203 97.201 227.79 106" transform="translate(-100)"/>
                <path stroke="#181212" stroke-width="2.012" d="M370 296L194 19" transform="translate(-100)"/>
                <path fill="#181212" d="M364 297c.383 1.026 4.53 8 4.53 8H384l-4-8h-16" transform="translate(-100)"/>
                <path fill="#FFCA7A" d="M381.52 297h-21.038c-2.475 0-4.482-1.79-4.482-4s2.007-4 4.482-4h21.038c2.473 0 4.48 1.79 4.48 4s-2.007 4-4.48 4M368.538 305s-15.564 1.806 1.335 20.804l.388.362C379.13 334.42 390.724 339 402.756 339h52.405c1.567 0 2.839-1.287 2.839-2.878 0-1.503-1.14-2.754-2.617-2.872l-27.278-2.165s1.298-10.557-23.397-11.877c0 0 .013-13.638-20.66-14.208h-15.51" transform="translate(-100)"/>
                <path fill="#96524B" d="M289.863 117.658L273 140.865 283.307 149l20.174-20.256c3.447-3.461 3.343-9.005-.23-12.34-3.92-3.658-10.249-3.065-13.388 1.254" transform="translate(-100)"/>
                <path fill="#96524B" d="M282.979 157.402c5.745-3.303 7.726-10.637 4.422-16.382-3.301-5.745-10.635-7.724-16.38-4.421-5.745 3.302-7.725 10.634-4.424 16.38 3.305 5.744 10.637 7.726 16.382 4.423" transform="translate(-100)"/>
                <path fill="#96524B" d="M265.448 143s-3.941-3.339 1.18-6.516c5.12-3.175 13.665-4.702 20.372 4.221L265.448 143M250.132 126.968c-6.608-.48-11.578-6.227-11.1-12.836.48-6.61 6.225-11.578 12.837-11.1 6.609.48 11.579 6.225 11.099 12.836-.48 6.61-6.225 11.578-12.836 11.1" transform="translate(-100)"/>
                <path fill="#96524B" d="M260.7 107.026s1.973-4.936-4.213-5.843c-6.184-.904-14.686 1.259-16.487 12.817l20.7-6.974" transform="translate(-100)"/>
                <path fill="#96524B" d="M197.652 137.318c2.175 5.423 8.82 7.392 13.575 4.022L252 120.647 248.625 108l-46.865 17.952c-4.054 2.183-5.823 7.08-4.108 11.366" transform="translate(-100)"/>
                <path fill="#37221B" d="M268.109 30.369c-.651 3.533 1.686 6.905 5.214 7.53 3.53.626 6.918-1.733 7.57-5.266.646-3.537-1.687-6.909-5.217-7.533-3.53-.625-6.916 1.734-7.567 5.269" transform="translate(-100)"/>
                <path fill="#96524B" d="M264 44.628l-1.756 15.78c-.608 5.542-4.27 8.135-9.6 7.497-4.551-.542-9.31-3.276-8.567-8.138L246.087 35 264 44.628" transform="translate(-100)"/>
                <path fill="#96524B" d="M257.538 49.896c8.878 1.007 17.002-5.465 18.085-12.987l2.187-15.745c1.359-9.425-4.705-18.225-13.706-19.881-9.215-1.698-19.675 4.409-21.372 14.008l-1.556 12.291c-1.411 11.064 5.82 20.372 16.362 22.314" transform="translate(-100)"/>
                <path fill="#181212" d="M276 36.156s-.407 5.56-4.831 6.686c0 0-4.713-4.066-12.515-1.568-7.8 2.5-13.48-13.274-13.48-13.274l-4.16 7.459S239.76 54.047 261.163 54c3.773-.01 13.834-2.061 14.477-15.264M278 14.81s-11.79 2.311-28.18-1.9l-.1 6.31s-3.892 4.233-4.599 8.78l-4.779-3.34-1.155-7.356c-.55-3.493.1-7.14 2.121-10.03 3.586-5.136 10.775-8.36 20.943-6.936C272.42 1.762 277.123 9.362 278 14.81" transform="translate(-100)"/>
                <path stroke="#181212" stroke-linecap="round" stroke-linejoin="round" stroke-width=".497" d="M268 35L267.965 38 265 37.848" transform="translate(-100)"/>
                <path fill="#181212" d="M260.222 22.064s3.916.105 3.774 1.886c0 0-.123 1.2-3.532 1.034-3.405-.164-4.26-.547-4.453-1.712-.197-1.165 2.393-1.41 4.211-1.208M274.243 23.17s-2.85-.738-3.237.864c0 0-.237 1.09 2.264 1.665 2.502.576 3.36.291 3.68-.57.364-.975-1.337-1.754-2.707-1.96M271.016 32.295c-.12.819.448 1.577 1.268 1.69.82.117 1.58-.457 1.7-1.277.119-.82-.447-1.579-1.267-1.694-.82-.113-1.582.46-1.7 1.28M258.016 30.293c-.12.821.446 1.579 1.266 1.692.82.115 1.581-.456 1.702-1.277.12-.822-.446-1.579-1.266-1.694-.821-.113-1.581.459-1.702 1.28" transform="translate(-100)"/>
                <path stroke="#FFFFFE" stroke-width=".299" d="M265.95 32.302c-.442 3.562-3.69 6.09-7.252 5.648-3.56-.442-6.09-3.69-5.648-7.25.442-3.562 3.688-6.092 7.252-5.65 3.56.444 6.09 3.69 5.648 7.252z" transform="translate(-100)"/>
                <path stroke="#FFFFFE" stroke-width=".293" d="M281.945 34.366c-.462 3.505-3.737 6.006-7.315 5.589-3.577-.42-6.1-3.598-5.638-7.1.462-3.507 3.736-6.01 7.313-5.591 3.577.417 6.103 3.598 5.64 7.102zm-16.085-1.424l3.147.312-3.147-.312zm-13.375-2.691L245 26l7.485 4.25z" transform="translate(-100)"/>
                <path fill="#96524B" d="M234.108 27.369c-.65 3.534 1.687 6.906 5.217 7.53 3.53.626 6.917-1.734 7.567-5.268.65-3.534-1.687-6.906-5.215-7.53-3.531-.626-6.919 1.734-7.569 5.268" transform="translate(-100)"/>
                <path stroke="#181212" stroke-linecap="round" stroke-linejoin="round" stroke-width=".497" d="M240.95 31s.678-3.954-2.95-4" transform="translate(-100)"/>
                <path fill="#96524B" d="M244.372 57.413L236 60.963s-.131 12.766 19.96 10.839c0 0 11.382-1.555 11.032-11.246L255.61 56l-11.237 1.413" transform="translate(-100)"/>
                <path fill="#B1D5F9" d="M82 284L89.918 339 145.982 339 152 284 82 284" transform="translate(-100)"/>
                <path fill="#9CC3EB" d="M76 283L157 283 157 273 76 273z" transform="translate(-100)"/>
                <path fill="#2F262C" d="M157.743 282.623v1.007h-3.421c3.44 5.136 4.726 9.428 3.775 12.775-.656 2.31-2.39 4.13-5.155 5.415-1.962.911-4.2 1.497-6.648 1.739-16.233 1.6-29.124-.614-38.335-6.578-11.747-7.605-13.354-18.869-13.371-18.981l-3.588.307c.067.507 1.742 12.55 14.665 20.943 7.939 5.155 18.277 7.75 30.833 7.75 3.259 0 6.67-.175 10.23-.526 2.926-.288 5.618-.997 8-2.105 3.622-1.682 6.001-4.208 6.883-7.302 1.123-3.954-.191-8.802-3.868-14.444" transform="translate(-100)"/>
                <path fill="#F9FAF1" d="M481 71.893c-.017-9.085-7.643-14.914-17.032-14.893-9.389.02-16.987 5.886-16.968 14.97.013 5.948 3.29 11.152 8.185 14.03l17.695-.038c4.881-2.901 8.133-8.12 8.12-14.069" transform="translate(-100)"/>
                <path fill="#E0B9B6" d="M509 93.668L341.021 94 341 86.332 508.981 86 509 93.668" transform="translate(-100)"/>
                <path fill="#F9FAF1" d="M365.343 84.985l-7.565.015c-.917.004-1.664-.74-1.666-1.66L356 31.686c-.002-.92.74-1.667 1.657-1.67l7.565-.016c.917-.002 1.664.744 1.666 1.664L367 83.316c.002.92-.74 1.667-1.657 1.669M378.343 84.983l-7.567.017c-.915.002-1.662-.742-1.664-1.662L369 31.688c-.002-.92.738-1.67 1.655-1.671l7.567-.017c.917 0 1.664.744 1.666 1.662L380 83.314c.002.922-.74 1.667-1.657 1.67M391.345 84.983l-7.567.017c-.917.002-1.664-.742-1.666-1.662L382 31.686c-.002-.92.74-1.667 1.657-1.67l7.567-.016c.915-.002 1.662.742 1.664 1.663L393 83.314c.002.92-.738 1.665-1.655 1.67" transform="translate(-100)"/>
                <path fill="#FFCA7A" d="M428.23 79.554l-6.803 4.222c-.738.459-1.686.19-2.115-.602l-24.104-44.46c-.427-.79-.177-1.807.562-2.265l6.802-4.224c.739-.46 1.688-.19 2.115.6l24.104 44.462c.429.792.177 1.806-.56 2.267M442.229 79.55l-6.8 4.227c-.74.458-1.688.188-2.116-.602l-24.104-44.46c-.429-.793-.177-1.807.562-2.266l6.8-4.226c.74-.458 1.688-.188 2.116.604l24.104 44.459c.429.792.177 1.806-.562 2.265" transform="translate(-100)"/>
                <path stroke="#EEE" stroke-width="1.025" d="M0 339L528 339" transform="translate(-100)"/>
            </g>
        </g>
    </g>
</svg>
