<svg xmlns="http://www.w3.org/2000/svg" xmlns:xlink="http://www.w3.org/1999/xlink" width="52" height="52" viewBox="0 0 52 52">
    <defs>
        <filter id="0m4t1odd4a" width="150%" height="150%" x="-22.5%" y="-20%" filterUnits="objectBoundingBox">
            <feOffset dx="1" dy="2" in="SourceAlpha" result="shadowOffsetOuter1"/>
            <feGaussianBlur in="shadowOffsetOuter1" result="shadowBlurOuter1" stdDeviation="3"/>
            <feColorMatrix in="shadowBlurOuter1" result="shadowMatrixOuter1" values="0 0 0 0 0.376470588 0 0 0 0 0.380392157 0 0 0 0 0.439215686 0 0 0 0.1 0"/>
            <feOffset in="SourceAlpha" result="shadowOffsetOuter2"/>
            <feColorMatrix in="shadowOffsetOuter2" result="shadowMatrixOuter2" values="0 0 0 0 0.156862745 0 0 0 0 0.160784314 0 0 0 0 0.239215686 0 0 0 0.04 0"/>
            <feMerge>
                <feMergeNode in="shadowMatrixOuter1"/>
                <feMergeNode in="shadowMatrixOuter2"/>
            </feMerge>
        </filter>
        <circle id="kmll43qyxb" cx="20" cy="20" r="20"/>
    </defs>
    <g fill="none" transform="translate(5 4)">
        <use fill="#000" filter="url(#0m4t1odd4a)" xlink:href="#kmll43qyxb"/>
        <use fill="#FFF" xlink:href="#kmll43qyxb"/>
        <g>
            <path fill="#EB4335" d="M6.09 6.133c1.258-1.269 3.001-2.056 4.917-2.054 1.766.001 3.378.665 4.6 1.755.175.156.456.146.622-.02l2.243-2.242c.182-.183.177-.481-.013-.656C16.461 1.07 13.777-.043 10.832 0 7.856.046 5.162 1.282 3.207 3.25c-.218.22.037 2.875.037 2.875s1.618 1.246 2.846.008z" transform="translate(9 9)"/>
            <path fill="#FBBC03" d="M4.08 10.937c-.018 1.948.769 3.711 2.047 4.979l-.981 2.118-1.903.766c-2-1.99-3.239-4.742-3.243-7.784-.004-3.02 1.222-5.77 3.207-7.766L6.09 6.133c-1.228 1.238-1.995 2.935-2.01 4.804z" transform="translate(9 9)"/>
            <path fill="#34A953" d="M15.878 15.922c-1.26 1.25-3.002 2.011-4.923 2-1.882-.013-3.586-.776-4.827-2.007L3.244 18.8c1.981 1.97 4.709 3.192 7.721 3.201 3.02.01 5.765-1.232 7.763-3.23l-.825-1.762-2.025-1.086z" transform="translate(9 9)"/>
            <path fill="#4285F4" d="M22 9.87c0-.217-.176-.392-.393-.392H11.368c-.194 0-.351.157-.351.351v3.386c0 .194.157.352.351.352h5c.516 0 .836.562.57 1.003-.295.493-.65.945-1.056 1.347l-.004.005 2.85 2.85c.135-.135.271-.27.409-.405C20.917 16.392 22 13.773 22 10.915V9.87z" transform="translate(9 9)"/>
        </g>
    </g>
</svg>
