<svg xmlns="http://www.w3.org/2000/svg" width="24" height="24" viewBox="0 0 24 24">
    <g fill="#FFF" stroke="#4E3D77" stroke-width=".8">
        <path d="M1.142 8.717c-.496-.07-.965.277-1.037.779C.035 9.986 0 10.493 0 11s.035 1.013.105 1.504c.066.458.458.788.907.788.043 0 .086-.004.13-.01.502-.071.85-.535.778-1.037-.058-.405-.087-.824-.087-1.245 0-.421.03-.84.087-1.246.072-.501-.276-.965-.778-1.037z" transform="translate(1 1)"/>
        <path d="M11 0C6.847 0 3.092 2.299 1.2 6c-.23.45-.051 1.002.4 1.233.45.23 1.002.052 1.233-.4 1.577-3.083 4.706-5 8.167-5 5.055 0 9.167 4.112 9.167 9.167S16.054 20.167 11 20.167c-3.46 0-6.59-1.917-8.167-5-.23-.451-.782-.63-1.233-.4-.45.23-.63.783-.4 1.233 1.892 3.701 5.647 6 9.8 6 6.065 0 11-4.935 11-11 0-6.066-4.935-11-11-11z" transform="translate(1 1)"/>
        <path d="M3.667 11c0 .506.41.917.916.917h10.62l-2.101 2.102c-.358.358-.358.938 0 1.296.18.179.413.268.648.268.235 0 .469-.089.648-.268l3.667-3.667c.358-.358.358-.938 0-1.296l-3.667-3.667c-.358-.358-.938-.358-1.296 0-.358.358-.358.938 0 1.296l2.102 2.102H4.584c-.507 0-.917.411-.917.917z" transform="translate(1 1)"/>
    </g>
</svg>
