<svg xmlns="http://www.w3.org/2000/svg" xmlns:xlink="http://www.w3.org/1999/xlink" width="52" height="52" viewBox="0 0 52 52">
    <defs>
        <filter id="pse547k46a" width="150%" height="150%" x="-22.5%" y="-20%" filterUnits="objectBoundingBox">
            <feOffset dx="1" dy="2" in="SourceAlpha" result="shadowOffsetOuter1"/>
            <feGaussianBlur in="shadowOffsetOuter1" result="shadowBlurOuter1" stdDeviation="3"/>
            <feColorMatrix in="shadowBlurOuter1" result="shadowMatrixOuter1" values="0 0 0 0 0.376470588 0 0 0 0 0.380392157 0 0 0 0 0.439215686 0 0 0 0.1 0"/>
            <feOffset in="SourceAlpha" result="shadowOffsetOuter2"/>
            <feColorMatrix in="shadowOffsetOuter2" result="shadowMatrixOuter2" values="0 0 0 0 0.156862745 0 0 0 0 0.160784314 0 0 0 0 0.239215686 0 0 0 0.04 0"/>
            <feMerge>
                <feMergeNode in="shadowMatrixOuter1"/>
                <feMergeNode in="shadowMatrixOuter2"/>
            </feMerge>
        </filter>
        <circle id="tjx3irndwb" cx="20" cy="20" r="20"/>
    </defs>
    <g fill="none" fill-rule="evenodd">
        <g fill-rule="nonzero" transform="translate(5 4)">
            <use fill="#000" filter="url(#pse547k46a)" xlink:href="#tjx3irndwb"/>
            <use fill="#FFF" xlink:href="#tjx3irndwb"/>
        </g>
        <path fill="#1DA1F2" d="M27.158 16.644c.007.158.01.318.01.477 0 4.88-3.714 10.508-10.507 10.508-2.086 0-4.027-.611-5.661-1.659.289.034.583.051.88.051 1.731 0 3.324-.59 4.588-1.58-1.617-.03-2.98-1.098-3.45-2.566.225.043.456.067.694.067.337 0 .663-.045.974-.13-1.69-.338-2.963-1.832-2.963-3.62v-.047c.498.276 1.067.443 1.673.462-.992-.662-1.644-1.793-1.644-3.075 0-.676.183-1.31.5-1.856 1.822 2.235 4.544 3.704 7.613 3.859-.063-.27-.096-.553-.096-.842 0-2.039 1.654-3.693 3.693-3.693 1.063 0 2.022.449 2.696 1.167.842-.166 1.632-.473 2.345-.896-.276.862-.861 1.585-1.624 2.042.747-.09 1.46-.287 2.121-.581-.494.74-1.121 1.39-1.842 1.912z" transform="translate(5 4)"/>
    </g>
</svg>
