<svg xmlns="http://www.w3.org/2000/svg" xmlns:xlink="http://www.w3.org/1999/xlink" width="376" height="236" viewBox="0 0 376 236">
    <defs>
        <path id="5fds1fneva" d="M0 0H376V236H0z"/>
    </defs>
    <g fill="none" fill-rule="evenodd">
        <mask id="w5mwmr470b" fill="#fff">
            <use xlink:href="#5fds1fneva"/>
        </mask>
        <g mask="url(#w5mwmr470b)">
            <g>
                <path fill="#2F262C" d="M66.191 233.991L61.272 233.991 60.255 212.902 67.285 212.902 66.191 233.991M246.958 233.991L242.039 233.991 241.021 212.902 248.051 212.902 246.958 233.991" transform="translate(-38)"/>
                <path fill="#24A4BB" d="M267.132 131.288L259.093 130.553 240.017 138.371 240.017 171.728 267.132 171.728 267.132 131.288M42.179 131.288L50.217 130.553 69.294 138.371 69.294 171.728 42.179 171.728 42.179 131.288" transform="translate(-38)"/>
                <path fill="#66BED5" d="M229.498 107.455H79.813c-5.809 0-10.52 4.651-10.52 10.389v64.585c0 5.737 4.711 10.388 10.52 10.388h149.685c5.81 0 10.519-4.65 10.519-10.388v-64.585c0-5.738-4.71-10.389-10.52-10.389M273.91 223.949h-24.855v-78.767c0-8.634 6.97-15.633 15.567-15.633 8.596 0 15.565 6.999 15.565 15.633v72.463c0 3.483-2.81 6.304-6.276 6.304M37.41 223.949h24.854v-78.767c0-8.634-6.97-15.633-15.567-15.633-8.596 0-15.565 6.999-15.565 15.633v72.463c0 3.483 2.81 6.304 6.278 6.304M175.937 204.868L62.264 204.868 62.264 223.949 248.051 223.949 248.051 204.868 175.937 204.868" transform="translate(-38)"/>
                <path fill="#7DCAD9" d="M175.937 170.723L62.264 170.723 62.264 204.868 248.051 204.868 248.051 170.723 175.937 170.723" transform="translate(-38)"/>
                <path fill="#24A4BB" d="M240.212 163.694L70.104 163.694 62.264 170.723 248.051 170.723 240.212 163.694M62.264 203.864L248.051 203.864 248.051 201.855 62.264 201.855z" transform="translate(-38)"/>
                <path fill="#F9FAF1" d="M175.863 163.237l-31.492 2.446c-3.523.273-6.601-2.38-6.872-5.926l-1.905-24.842c-.271-3.547 2.364-6.643 5.886-6.916l31.493-2.448c3.523-.273 6.602 2.38 6.873 5.926l1.905 24.842c.272 3.547-2.364 6.643-5.888 6.918" transform="translate(-38)"/>
                <path fill="#EAB15C" d="M216.573 167.71h-31.445c-3.519 0-6.37-2.834-6.37-6.33v-24.495c0-3.496 2.851-6.332 6.37-6.332h31.445c3.519 0 6.372 2.836 6.372 6.332v24.494c0 3.497-2.853 6.332-6.372 6.332" transform="translate(-38)"/>
                <path fill="#EEA6A0" d="M234.959 205.872L231.983 224.953 242.333 224.633 246.043 206.706 234.959 205.872" transform="translate(-38)"/>
                <path fill="#171628" d="M231.823 222.945l-16.476 5.912c-1.079.502-1.647 1.652-1.372 2.777l29.055.349-1.075-9.032-10.132-.006" transform="translate(-38)"/>
                <path fill="#FFFFFE" d="M243.027 234.996L212.902 234.563 212.903 230.979 243.03 231.41 243.027 234.996" transform="translate(-38)"/>
                <path fill="#2E374F" d="M262.076 99.421l-.607 1.662c-6.044 9.44-11.674 21.285-15.515 31.774l-11.77 32.138-4.21 45.528 20.202 1.375 5.128-41.294 23.879-44.013-1.254-25.693-15.853-1.477" transform="translate(-38)"/>
                <path fill="#EEA6A0" d="M298.264 197.49L308.819 213.906 317.345 208.629 307.938 192.817 298.264 197.49" transform="translate(-38)"/>
                <path fill="#171628" d="M307.741 212.567l-12.004 15.768c-.731 1.13-.629 2.638.25 3.648l27.383-16.035-6.748-8.067-8.88 4.686" transform="translate(-38)"/>
                <path fill="#FFFFFE" d="M324.374 217.914L296.857 233.991 295.251 230.988 322.769 214.911 324.374 217.914" transform="translate(-38)"/>
                <path fill="#2E374F" d="M267.132 124.109l8.286 44.456 21.81 35.299 18.108-9.784-17.998-28.936.705-29.948s-1.699-27.407-10.98-37.783l-17.495 2.685-2.436 24.01" transform="translate(-38)"/>
                <path stroke="#1F2435" stroke-width=".756" d="M270.145 143.609L267.954 128.215 262.111 122.519" transform="translate(-38)"/>
                <path fill="#EEA6A0" d="M251.08 69.294l-3.968 23.503c-.433 2.563 1.338 4.996 4.02 5.52 2.579.504 5.141-.932 5.92-3.317l8.071-24.712-14.042-.994" transform="translate(-38)"/>
                <path fill="#EEA6A0" d="M248.062 89.483l-18.088 25.877 6.05 2.138 19.896-22.08c2.31-2.707 1.035-6.87-2.408-7.855-2.046-.584-4.24.189-5.45 1.92M229.73 118.502s-10.08 3.228-8.656 10.043l11.927-3.875 2.999-4.155-6.27-2.013" transform="translate(-38)"/>
                <path fill="#FFFFFE" d="M253.708 55.234L239.013 81.62c8.155 8.62 16.459 11.776 16.459 11.776l4.63-7.169-6.394-30.993" transform="translate(-38)"/>
                <path fill="#FFFFFE" d="M276.064 50.309s10.456-1.148 15.406 4.49c3.285 3.74.998 50.908.998 50.908s-22.102 7.677-36.414 1.083L252.068 60.5c.025-3.464 2.133-6.66 5.47-7.999.922-.37 5.402-1.802 10.787-1.921 5.425-.122 7.74-.27 7.74-.27" transform="translate(-38)"/>
                <path stroke="#C9C8C3" stroke-width=".72" d="M256.085 92.391L255.081 72.306" transform="translate(-38)"/>
                <path stroke="#25282B" stroke-width="3.528" d="M331.404 225.467s-44.187 3.911-55.875-10.353c-11.688-14.265-1.783-27.486 11.113-36.297 8.95-6.116 15.806-12.787 20.477-17.478 5.88-5.905 10.249-13.219 12.063-21.34 3.614-16.179-3.56-27.533-12.992-33.71-13.399-8.772-30.335.171-30.335.171l-118.187 51.113" transform="translate(-38)"/>
                <path fill="#25282B" d="M134.57 167.124c.413-.576 25.214-11.464 25.214-11.464l3.91 3.497-23.565 10.562-5.559-2.595" transform="translate(-38)"/>
                <path fill="#25282B" d="M117.498 162.024l34.834 23.763 1.038-2.829c1.108-3.02-1.241-7.169-3.897-8.949l-21.159-14.181c-2.31-1.55-5.318-1.54-7.62.024l-3.196 2.172" transform="translate(-38)"/>
                <path fill="#EAB15C" d="M120.51 159.982l33.679 22.792 1.04-2.8c1.112-2.994.013-6.357-2.65-8.12l-21.22-14.046c-2.32-1.535-5.336-1.524-7.643.025l-3.205 2.15" transform="translate(-38)"/>
                <path fill="#1A1B1F" d="M330.08 228.97L341.447 227.998 340.763 219.932 329.396 220.904 330.08 228.97" transform="translate(-38)"/>
                <path fill="#EAB15C" d="M383.939 231.789l-36.898 3.167c-7.053.604-12.735-5.734-11.433-12.749l3.655-19.648c1.247-6.715 6.785-11.767 13.537-12.345l39.214-3.367c8.295-.712 15.592 5.494 16.298 13.86l2.428 28.781-26.801 2.3" transform="translate(-38)"/>
                <path stroke="#EA9639" stroke-width="2.016" d="M337.43 207.881L389.651 203.864" transform="translate(-38)"/>
                <path fill="#F0BC70" d="M373.668 220.382c-1.082-11.945 8.344-22.453 21.054-23.468 12.711-1.018 23.89 7.842 24.973 19.787.399 4.4-.639 8.601-2.731 12.21l-38.411 3.072c-2.71-3.224-4.486-7.2-4.885-11.6" transform="translate(-38)"/>
                <path fill="#383A41" d="M379.67 219.83c.8 9.118 9.065 15.88 18.458 15.105 9.396-.777 16.362-8.797 15.563-17.914-.8-9.119-9.064-15.882-18.458-15.105-9.395.776-16.361 8.796-15.562 17.914" transform="translate(-38)"/>
                <path fill="#1A1B1F" d="M389.679 219.524c.351 3.867 3.997 6.737 8.143 6.408 4.145-.33 7.218-3.733 6.865-7.6-.352-3.869-3.997-6.738-8.143-6.408-4.145.329-7.218 3.731-6.865 7.6" transform="translate(-38)"/>
                <path fill="#EEA6A0" d="M281.464 102.434l-5.385.099c-2.35.044-4.13.03-5.8 1.612-1.744 1.654-3.096 4.076-1.28 7.053 3.54 5.798 6.227-1.278 6.227-1.278s4.582 1.224 8.978-2.358l-2.74-5.128" transform="translate(-38)"/>
                <path fill="#EEA6A0" d="M281.191 102.13l24.414-15.968c3.117-1.823 7.087-.407 8.352 2.978 1.163 3.12-.474 6.61-3.61 7.693l-26.484 10.622-2.672-5.325" transform="translate(-38)"/>
                <path fill="#EEA6A0" d="M312.323 88.956L295.074 66.281 287.217 78.284 302.795 94.4 312.323 88.956" transform="translate(-38)"/>
                <path fill="#FFFFFE" d="M289.481 52.221c10.007 6.73 24.85 24.892 24.85 24.892-2.457 7.022-18.56 16.283-18.56 16.283l-11.567-12.801 5.277-28.374" transform="translate(-38)"/>
                <path stroke="#C9C8C3" stroke-width=".72" d="M293.243 91.387L277.174 74.315" transform="translate(-38)"/>
                <path fill="#37221B" d="M288.207 22.765c-.37 8.867-7.86 15.754-16.725 15.382-8.866-.37-15.752-7.858-15.383-16.725.371-8.866 7.86-15.754 16.725-15.382 8.866.37 15.753 7.858 15.383 16.725" transform="translate(-38)"/>
                <path fill="#37221B" d="M289.218 9.417c-.208 4.987-4.42 8.861-9.408 8.651-4.988-.207-8.861-4.42-8.653-9.407.21-4.987 4.421-8.86 9.409-8.653 4.987.209 8.86 4.421 8.652 9.409M265.054 12.051s-17.386.355-8.398 16.068l8.467-.567-.069-15.5" transform="translate(-38)"/>
                <path fill="#E78281" d="M264.082 30.62c.319 2.2-1.43 4.212-3.905 4.496-2.476.282-4.74-1.271-5.059-3.471-.318-2.2 1.43-4.214 3.906-4.497 2.474-.283 4.74 1.271 5.058 3.471" transform="translate(-38)"/>
                <path fill="#EEA6A0" d="M266.128 42.239l.926 8.318c.381 3.454 2.54 5.044 5.658 4.606 2.662-.373 5.477.249 5.467-2.674l-2.735-16.336-9.316 6.086" transform="translate(-38)"/>
                <path fill="#E78281" d="M266.977 49.209L275.166 42.249 266.128 42.179 266.977 49.209" transform="translate(-38)"/>
                <path fill="#EEA6A0" d="M270.097 44.168c-5.633.337-10.548-3.71-10.985-8.172l-.97-10.531c-.548-5.592 3.568-10.599 9.3-11.317 5.871-.733 12.272 3.166 13.027 8.87l.683 8.48c.528 6.558-4.339 11.83-11.055 12.67" transform="translate(-38)"/>
                <path stroke="#160F0F" stroke-linecap="round" stroke-linejoin="round" stroke-width=".566" d="M264.196 33.14L264.119 35.149 265.123 35.144" transform="translate(-38)"/>
                <path fill="#160F0F" d="M270.564 26.113s-2.447-.064-2.428.552c0 0 .03.416 2.163.445 2.132.03 2.68-.08 2.846-.476.167-.396-1.438-.546-2.58-.52M259.99 27.142s1.924-.181 2.119.398c0 0 .118.392-1.567.526s-2.244.008-2.425-.307c-.205-.356.956-.584 1.874-.617" transform="translate(-38)"/>
                <path stroke="#160F0F" stroke-linecap="round" stroke-linejoin="round" stroke-width=".566" d="M271.149 30.128s-1.508 1.39-3.377.162m-5.905.566s-.9 1.37-2.77.14m5.202 6.05s2.111.502 3.473-.629" transform="translate(-38)"/>
                <path fill="#37221B" d="M261.106 16.126s6.653 7.84 20.085 6.892c0 0-2.993-8.402-10.843-9.707-7.85-1.305-9.242 2.815-9.242 2.815" transform="translate(-38)"/>
                <path fill="#37221B" d="M274.221 16.608s-4.382 7.24 4.643 13.52c0 0 7.776-6.783 2.502-12.255-5.275-5.471-7.145-1.265-7.145-1.265" transform="translate(-38)"/>
                <path fill="#EEA6A0" d="M285.171 29.614c.318 2.201-1.43 4.214-3.906 4.498-2.475.282-4.74-1.272-5.057-3.473-.32-2.2 1.43-4.212 3.905-4.495 2.474-.284 4.74 1.27 5.058 3.47" transform="translate(-38)"/>
                <path stroke="#160F0F" stroke-linecap="round" stroke-linejoin="round" stroke-width=".566" d="M279.203 31.132s-.456-3.117 2.993-3.01" transform="translate(-38)"/>
                <path fill="#DF5148" d="M287.499 27.115s1.28-4.465.431-6.422C282.581 8.36 269.754 9.458 267.132 8.034l2.28 1.24c.441-.016 13.578 5.871 18.087 17.84" transform="translate(-38)"/>
                <path fill="#E57774" d="M272.86 8.104s5.166-3.64 13.353-1.286c0 0-9.487 9.02-15.064 3.376l1.712-2.09M269.14 7.104s-.421-3.288-10.042-5.095c0 0 .855 11.057 10.014 7.227" transform="translate(-38)"/>
                <path stroke="#E05852" stroke-width=".52" d="M271.43 9.038s.736-.762 3.736-.684m-6.63-.047s-1.103-1.18-3.413-1.277" transform="translate(-38)"/>
                <path fill="#E57774" d="M268.137 7.964c-.039 1.107.829 2.038 1.937 2.077 1.109.039 2.039-.828 2.078-1.937.039-1.107-.827-2.037-1.936-2.077-1.11-.04-2.04.828-2.079 1.937" transform="translate(-38)"/>
                <path fill="#EEA6A0" d="M267.532 50.213s-6.955 5.565-3.41 8.31c3.545 2.747 15.706-2.911 15.034-6.5l-11.624-1.81" transform="translate(-38)"/>
                <path stroke="#2F262C" stroke-width="1.033" d="M0 235.498L445.889 235.498" transform="translate(-38)"/>
            </g>
        </g>
    </g>
</svg>
